# xmcd
#
# Track frame offsets:
#	150
#	14781
#	27821
#	42915
#	51734
#	66516
#	77551
#	89635
#	99219
#	108585
#	118666
#	130504
#	142904
#
# Disc length: 2063 seconds
#
# Revision: 1
# Processed by: cddbd v1.5.2PL0 Copyright (c) Steve Scherf et al.
# Submitted via: audiograbber 1.83.01
#
DISCID=b3080d0d
DTITLE=Lasse Stefanz - Strandpartajj
DYEAR=1976
DGENRE=DansBand
TTITLE0=Sweet little rock'n'roller
TTITLE1=Min sommarvän
TTITLE2=Oh la la let's rock'n'roll
TTITLE3=What am i living for
TTITLE4=Vi har gungat uppå havet
TTITLE5=Låt oss aldrig glömma
TTITLE6=Roll on big mama
TTITLE7=Utan dig
TTITLE8=Buckaroo
TTITLE9=Rented tuxedo
TTITLE10=Ok jag hängde med
TTITLE11=Du har lekt med mig
TTITLE12=Jag har en vän
EXTD=Nr:3
EXTT0=
EXTT1=
EXTT2=
EXTT3=
EXTT4=
EXTT5=
EXTT6=
EXTT7=
EXTT8=
EXTT9=
EXTT10=
EXTT11=
EXTT12=
PLAYORDER=
